<?xml version="1.0" encoding="UTF-8" standalone="no"?><!DOCTYPE svg PUBLIC "-//W3C//DTD SVG 1.1//EN" "http://www.w3.org/Graphics/SVG/1.1/DTD/svg11.dtd"><svg width="100%" height="100%" viewBox="0 0 19 20" version="1.1" xmlns="http://www.w3.org/2000/svg" xmlns:xlink="http://www.w3.org/1999/xlink" xml:space="preserve" xmlns:serif="http://www.serif.com/" style="fill-rule:evenodd;clip-rule:evenodd;stroke-linejoin:round;stroke-miterlimit:2;"><g id="Layer-1" serif:id="Layer 1"><path d="M8.276,1.732c0.125,-0.149 0.257,-0.291 0.396,-0.426c0.096,-0.094 0.195,-0.184 0.298,-0.27c-0.967,-0.681 -2.153,-1.069 -3.431,-1.034c-3.099,0.086 -5.539,2.685 -5.539,5.785l0,5.095c0,0.286 0.232,0.518 0.518,0.518c0.286,0 0.518,-0.232 0.518,-0.518l0,-5.182c0,-2.572 2.092,-4.664 4.664,-4.664c0.174,0 0.346,0.011 0.516,0.03c0.737,0.082 1.422,0.336 2.015,0.722c0.015,-0.019 0.029,-0.038 0.045,-0.056" style="fill:#1d97d4;fill-rule:nonzero;"/><path d="M17.173,10.158c-0.255,0.24 -0.532,0.456 -0.827,0.647c1.038,0.915 1.667,2.283 1.573,3.793c-0.148,2.393 -2.137,4.305 -4.533,4.366c-2.286,0.058 -4.215,-1.538 -4.678,-3.674c-0.051,-0.238 -0.263,-0.406 -0.505,-0.406c-0.333,0 -0.578,0.309 -0.507,0.634c0.599,2.746 3.183,4.758 6.167,4.453c2.706,-0.277 4.857,-2.476 5.082,-5.186c0.151,-1.823 -0.562,-3.486 -1.772,-4.627" style="fill:#d1d3d4;fill-rule:nonzero;"/><path d="M16.034,9.198c-0.287,0.253 -0.605,0.47 -0.947,0.647c-0.64,0.331 -1.365,0.518 -2.133,0.518c-0.344,0 -0.679,-0.039 -1.002,-0.111c-0.397,-0.087 -0.777,-0.224 -1.13,-0.407c-0.343,-0.177 -0.66,-0.394 -0.947,-0.647c-0.705,-0.621 -1.22,-1.452 -1.45,-2.393c-0.087,-0.354 -0.134,-0.724 -0.134,-1.105c0,-1.026 0.334,-1.975 0.897,-2.746c0.045,-0.061 0.091,-0.121 0.138,-0.18c0.158,-0.195 0.331,-0.378 0.518,-0.545c0.072,-0.065 0.146,-0.127 0.223,-0.187c0.794,-0.629 1.797,-1.006 2.887,-1.006c2.572,0 4.664,2.092 4.664,4.664c0,1.392 -0.614,2.643 -1.584,3.498m0.826,0.647c0.619,-0.583 1.108,-1.303 1.418,-2.11c0.001,-0.003 0.003,-0.007 0.004,-0.01c0.03,-0.08 0.059,-0.161 0.086,-0.243c0.004,-0.012 0.008,-0.025 0.012,-0.037c0.024,-0.072 0.045,-0.145 0.065,-0.218c0.006,-0.023 0.013,-0.045 0.019,-0.067c0.017,-0.063 0.031,-0.126 0.046,-0.19c0.007,-0.033 0.015,-0.065 0.022,-0.098c0.011,-0.053 0.02,-0.105 0.03,-0.158c0.008,-0.045 0.017,-0.089 0.024,-0.134c0.006,-0.039 0.01,-0.078 0.015,-0.117c0.008,-0.059 0.017,-0.118 0.023,-0.178c0.002,-0.016 0.002,-0.034 0.004,-0.05c0.016,-0.177 0.026,-0.355 0.026,-0.536c0,-0.358 -0.035,-0.708 -0.098,-1.047c-0.494,-2.644 -2.817,-4.652 -5.602,-4.652c-0.058,0 -0.116,0.002 -0.173,0.004c-0.03,0.001 -0.06,0.001 -0.09,0.002c-0.056,0.003 -0.112,0.007 -0.168,0.011c-0.033,0.003 -0.067,0.005 -0.1,0.008c-0.057,0.005 -0.113,0.012 -0.17,0.019c-0.03,0.004 -0.061,0.007 -0.092,0.012c-0.059,0.008 -0.117,0.017 -0.175,0.027c-0.027,0.005 -0.053,0.009 -0.079,0.014c-0.062,0.012 -0.124,0.024 -0.185,0.038c-0.018,0.004 -0.036,0.008 -0.054,0.012c-0.069,0.016 -0.138,0.033 -0.206,0.051c-0.001,0 -0.002,0.001 -0.003,0.001c-0.793,0.216 -1.517,0.599 -2.133,1.108c-0.015,0.013 -0.03,0.027 -0.045,0.04c-0.103,0.086 -0.202,0.176 -0.298,0.27c-0.139,0.135 -0.272,0.277 -0.396,0.426c-0.016,0.018 -0.03,0.037 -0.045,0.056c-0.218,0.266 -0.413,0.551 -0.581,0.855c-0.163,0.296 -0.301,0.609 -0.411,0.935c-0.004,0.013 -0.009,0.027 -0.013,0.04c-0.016,0.047 -0.03,0.094 -0.045,0.141c-0.011,0.039 -0.022,0.077 -0.033,0.116c-0.014,0.053 -0.028,0.105 -0.041,0.158c-0.012,0.051 -0.024,0.103 -0.035,0.155c-0.006,0.027 -0.012,0.054 -0.018,0.082c-0.015,0.077 -0.029,0.155 -0.041,0.233c-0.003,0.016 -0.005,0.032 -0.007,0.048c-0.012,0.08 -0.023,0.162 -0.031,0.243c-0.001,0.005 -0.001,0.011 -0.002,0.016c-0.009,0.091 -0.016,0.182 -0.021,0.275c0,0.007 -0.001,0.015 -0.001,0.023c-0.005,0.093 -0.007,0.186 -0.007,0.28c0,0.099 0.002,0.196 0.007,0.293c0.001,0.014 0.003,0.027 0.003,0.04c0.005,0.078 0.01,0.154 0.018,0.231c0.018,0.183 0.045,0.364 0.081,0.542c0.234,1.186 0.837,2.241 1.684,3.04c0.255,0.24 0.532,0.457 0.827,0.648c0.463,0.298 0.971,0.531 1.512,0.686c0.007,0.002 0.014,0.004 0.021,0.006c0.079,0.022 0.159,0.043 0.239,0.062c0.017,0.004 0.035,0.008 0.052,0.012c0.07,0.016 0.141,0.03 0.212,0.043c0.03,0.006 0.06,0.011 0.09,0.016c0.05,0.009 0.1,0.017 0.149,0.024c0.047,0.006 0.094,0.012 0.14,0.017c0.039,0.005 0.077,0.01 0.116,0.013c0.07,0.007 0.141,0.012 0.213,0.017c0.017,0.001 0.034,0.002 0.051,0.003c0.094,0.005 0.189,0.007 0.284,0.007c0.094,0 0.186,-0.002 0.279,-0.007c0.012,-0.001 0.024,-0.001 0.036,-0.002c0.082,-0.004 0.163,-0.011 0.244,-0.018c0.012,-0.002 0.023,-0.002 0.035,-0.004c0.088,-0.009 0.175,-0.02 0.261,-0.033c0.019,-0.003 0.038,-0.006 0.057,-0.009c0.062,-0.01 0.124,-0.021 0.185,-0.033c0.034,-0.007 0.068,-0.014 0.101,-0.021c0.046,-0.01 0.091,-0.02 0.136,-0.031c0.088,-0.022 0.175,-0.044 0.261,-0.07c0.013,-0.004 0.027,-0.007 0.04,-0.011c0.059,-0.018 0.117,-0.036 0.175,-0.056c0.009,-0.003 0.018,-0.006 0.027,-0.009c0.441,-0.151 0.857,-0.354 1.243,-0.602l0.001,0.001c0.295,-0.191 0.572,-0.407 0.827,-0.647c-0.001,-0.001 -0.001,-0.001 -0.002,-0.002" style="fill:#6c6e70;fill-rule:nonzero;"/></g></svg>